<svg xmlns="http://www.w3.org/2000/svg" version="1.1" xmlns:xlink="http://www.w3.org/1999/xlink" xmlns:svgjs="http://svgjs.dev/svgjs" width="1000" height="300" viewBox="0 0 1000 450"><g transform="matrix(1,0,0,1,-0.6060606060606233,-167.8231666067743)"><svg xmlns="http://www.w3.org/2000/svg" version="1.1" xmlns:xlink="http://www.w3.org/1999/xlink" xmlns:svgjs="http://svgjs.com/svgjs" viewBox="0 0 396 228" data-background-color="#00784a" preserveAspectRatio="xMidYMid meet" height="575" width="1000"><defs></defs><g id="tight-bounds" transform="matrix(1,0,0,1,0.2400000000000091,92.52316372189586)"><svg viewBox="0 0 395.52 135.3817838888707" height="135.3817838888707" width="395.52"><g><svg viewBox="0 0 395.52 135.3817838888707" height="135.3817838888707" width="395.52"><g transform="matrix(1,0,0,1,0,83.67137369112598)"><svg viewBox="0 0 395.52 51.710410197744714" height="51.710410197744714" width="395.52"><g><svg viewBox="0 0 395.52 51.710410197744714" height="51.710410197744714" width="395.52"><g><svg viewBox="0 0 395.52 51.710410197744714" height="51.710410197744714" width="395.52"><g transform="matrix(1,0,0,1,0,0)"><svg width="395.52" viewBox="5 -39.5 305.93 40" height="51.710410197744714" data-palette-color="currentColor"><path d="M20.6 0L7.6 0Q6.5 0 5.75-0.75 5-1.5 5-2.6L5-2.6 5-36.45Q5-37.6 5.75-38.33 6.5-39.05 7.6-39.05L7.6-39.05 19.55-39.05Q22.95-39.05 25.53-37.73 28.1-36.4 29.58-34.05 31.05-31.7 31.05-28.65L31.05-28.65Q31.05-26.2 29.73-24.23 28.4-22.25 26.1-21.1L26.1-21.1Q29.4-20.3 31.4-17.95 33.4-15.6 33.4-11.8L33.4-11.8Q33.4-8.35 31.78-5.7 30.15-3.05 27.25-1.53 24.35 0 20.6 0L20.6 0ZM10.2-18.2L10.2-4.8 20.6-4.8Q22.9-4.8 24.65-5.6 26.4-6.4 27.4-7.95 28.4-9.5 28.4-11.8L28.4-11.8Q28.4-13.95 27.4-15.35 26.4-16.75 24.65-17.48 22.9-18.2 20.6-18.2L20.6-18.2 10.2-18.2ZM10.2-34.25L10.2-23 19.55-23Q22.4-23 24.23-24.4 26.05-25.8 26.05-28.65L26.05-28.65Q26.05-31.5 24.23-32.88 22.4-34.25 19.55-34.25L19.55-34.25 10.2-34.25ZM66.35 0L43.75 0Q42.65 0 41.9-0.75 41.15-1.5 41.15-2.6L41.15-2.6 41.15-36.45Q41.15-37.6 41.9-38.33 42.65-39.05 43.75-39.05L43.75-39.05 66.35-39.05Q67.5-39.05 68.2-38.38 68.9-37.7 68.9-36.6L68.9-36.6Q68.9-35.55 68.2-34.9 67.5-34.25 66.35-34.25L66.35-34.25 46.35-34.25 46.35-22.1 60.7-22.1Q61.85-22.1 62.55-21.43 63.25-20.75 63.25-19.7L63.25-19.7Q63.25-18.65 62.55-17.98 61.85-17.3 60.7-17.3L60.7-17.3 46.35-17.3 46.35-4.8 66.35-4.8Q67.5-4.8 68.2-4.15 68.9-3.5 68.9-2.45L68.9-2.45Q68.9-1.35 68.2-0.68 67.5 0 66.35 0L66.35 0ZM90.24 0L90.24 0Q89.14 0 88.39-0.75 87.64-1.5 87.64-2.6L87.64-2.6 87.64-36.45Q87.64-37.6 88.39-38.33 89.14-39.05 90.24-39.05L90.24-39.05 112.84-39.05Q113.99-39.05 114.69-38.38 115.39-37.7 115.39-36.6L115.39-36.6Q115.39-35.55 114.69-34.9 113.99-34.25 112.84-34.25L112.84-34.25 92.84-34.25 92.84-22.1 107.19-22.1Q108.34-22.1 109.04-21.43 109.74-20.75 109.74-19.7L109.74-19.7Q109.74-18.65 109.04-17.98 108.34-17.3 107.19-17.3L107.19-17.3 92.84-17.3 92.84-2.6Q92.84-1.5 92.09-0.75 91.34 0 90.24 0ZM124.64 0L124.64 0Q123.54 0 122.79-0.75 122.04-1.5 122.04-2.6L122.04-2.6 122.04-36.45Q122.04-37.6 122.79-38.33 123.54-39.05 124.64-39.05L124.64-39.05 133.64-39.05Q137.39-39.05 140.29-37.48 143.19-35.9 144.82-33.15 146.44-30.4 146.44-26.75L146.44-26.75Q146.44-23.35 144.82-20.7 143.19-18.05 140.29-16.55 137.39-15.05 133.64-15.05L133.64-15.05 127.24-15.05 127.24-2.6Q127.24-1.5 126.52-0.75 125.79 0 124.64 0ZM145.39 0L145.39 0Q144.69 0 144.12-0.3 143.54-0.6 143.14-1.25L143.14-1.25 134.14-15.75 139.19-17.2 147.39-4Q148.29-2.55 147.64-1.28 146.99 0 145.39 0ZM127.24-34.25L127.24-19.85 133.64-19.85Q135.94-19.85 137.69-20.73 139.44-21.6 140.44-23.18 141.44-24.75 141.44-26.75L141.44-26.75Q141.44-28.95 140.44-30.65 139.44-32.35 137.69-33.3 135.94-34.25 133.64-34.25L133.64-34.25 127.24-34.25ZM156.24 0L156.24 0Q155.14 0 154.39-0.75 153.64-1.5 153.64-2.6L153.64-2.6 153.64-36.45Q153.64-37.6 154.39-38.33 155.14-39.05 156.24-39.05L156.24-39.05Q157.39-39.05 158.11-38.33 158.84-37.6 158.84-36.45L158.84-36.45 158.84-2.6Q158.84-1.5 158.11-0.75 157.39 0 156.24 0ZM194.04 0L171.44 0Q170.34 0 169.59-0.75 168.84-1.5 168.84-2.6L168.84-2.6 168.84-36.45Q168.84-37.6 169.59-38.33 170.34-39.05 171.44-39.05L171.44-39.05 194.04-39.05Q195.19-39.05 195.89-38.38 196.59-37.7 196.59-36.6L196.59-36.6Q196.59-35.55 195.89-34.9 195.19-34.25 194.04-34.25L194.04-34.25 174.03-34.25 174.03-22.1 188.39-22.1Q189.54-22.1 190.24-21.43 190.94-20.75 190.94-19.7L190.94-19.7Q190.94-18.65 190.24-17.98 189.54-17.3 188.39-17.3L188.39-17.3 174.03-17.3 174.03-4.8 194.04-4.8Q195.19-4.8 195.89-4.15 196.59-3.5 196.59-2.45L196.59-2.45Q196.59-1.35 195.89-0.68 195.19 0 194.04 0L194.04 0ZM206.38 0L206.38 0Q205.28 0 204.56-0.75 203.83-1.5 203.83-2.6L203.83-2.6 203.83-36.45Q203.83-37.6 204.56-38.33 205.28-39.05 206.38-39.05L206.38-39.05Q207.58-39.05 208.38-38.1L208.38-38.1 230.18-9.1 230.18-36.45Q230.18-37.6 230.93-38.33 231.68-39.05 232.78-39.05L232.78-39.05Q233.93-39.05 234.63-38.33 235.33-37.6 235.33-36.45L235.33-36.45 235.33-2.6Q235.33-1.5 234.63-0.75 233.93 0 232.78 0L232.78 0Q232.28 0 231.71-0.23 231.13-0.45 230.78-0.9L230.78-0.9 208.98-29.9 208.98-2.6Q208.98-1.5 208.26-0.75 207.53 0 206.38 0ZM256.98 0L247.93 0Q246.83 0 246.08-0.75 245.33-1.5 245.33-2.6L245.33-2.6 245.33-36.45Q245.33-37.6 246.08-38.33 246.83-39.05 247.93-39.05L247.93-39.05 256.98-39.05Q261.28-39.05 264.81-37.63 268.33-36.2 270.93-33.58 273.53-30.95 274.93-27.4 276.33-23.85 276.33-19.55L276.33-19.55Q276.33-15.25 274.93-11.68 273.53-8.1 270.93-5.48 268.33-2.85 264.81-1.43 261.28 0 256.98 0L256.98 0ZM250.53-34.45L250.53-4.6 256.98-4.6Q261.18-4.6 264.41-6.53 267.63-8.45 269.48-11.83 271.33-15.2 271.33-19.55L271.33-19.55Q271.33-23.95 269.48-27.3 267.63-30.65 264.41-32.55 261.18-34.45 256.98-34.45L256.98-34.45 250.53-34.45ZM296.88 0.5L296.88 0.5Q293.68 0.5 290.78-0.5 287.88-1.5 285.73-3.3 283.58-5.1 282.58-7.45L282.58-7.45Q282.08-8.5 282.6-9.4 283.13-10.3 284.38-10.55L284.38-10.55Q285.28-10.75 286.15-10.28 287.03-9.8 287.48-8.85L287.48-8.85Q288.08-7.6 289.45-6.55 290.83-5.5 292.78-4.85 294.73-4.2 296.88-4.2L296.88-4.2Q299.28-4.2 301.3-4.95 303.33-5.7 304.58-7.13 305.83-8.55 305.83-10.65L305.83-10.65Q305.83-13.3 303.75-15.4 301.68-17.5 296.93-18L296.93-18Q290.73-18.6 287.18-21.65 283.63-24.7 283.63-29.2L283.63-29.2Q283.63-32.5 285.48-34.8 287.33-37.1 290.5-38.3 293.68-39.5 297.58-39.5L297.58-39.5Q300.63-39.5 302.9-38.65 305.18-37.8 306.88-36.3 308.58-34.8 309.83-32.75L309.83-32.75Q310.53-31.65 310.4-30.68 310.28-29.7 309.43-29.15L309.43-29.15Q308.48-28.55 307.38-28.9 306.28-29.25 305.73-30.2L305.73-30.2Q304.93-31.65 303.78-32.65 302.63-33.65 301.08-34.23 299.53-34.8 297.43-34.8L297.43-34.8Q293.73-34.85 291.23-33.43 288.73-32 288.73-29.05L288.73-29.05Q288.73-27.55 289.5-26.18 290.28-24.8 292.35-23.8 294.43-22.8 298.33-22.4L298.33-22.4Q304.28-21.8 307.6-18.78 310.93-15.75 310.93-10.8L310.93-10.8Q310.93-7.95 309.75-5.85 308.58-3.75 306.6-2.33 304.63-0.9 302.1-0.2 299.58 0.5 296.88 0.5Z" opacity="1" transform="matrix(1,0,0,1,0,0)" fill="currentColor" class="undefined-text-0" data-fill-palette-color="primary" id="text-0"></path></svg></g></svg></g></svg></g></svg></g><g transform="matrix(1,0,0,1,148.53244812809683,0)"><svg viewBox="0 0 98.45510374380633 71.4637868932832" height="71.4637868932832" width="98.45510374380633"><g><svg xmlns="http://www.w3.org/2000/svg" viewBox="16.017052077479644 48 479.98303901456313 416.001" x="8" y="0" height="71.4637868932832" width="82.45510374380633" class="icon-icon-0" fill="currentColor" data-fill-palette-color="accent" id="icon-0"><path d="M21.968 352.1a20.386 20.386 0 0 0 28.941 0l36.424-36.616c0.348 1.452 0.732 2.959 1.151 4.571l20.574 79.347A72.472 72.472 0 0 0 181.1 464a8 8 0 0 0 7.977-7.4l5.33-71.347c1.649-21.973 19.9-39.849 40.693-39.849h16.409c20.8 0 39.053 17.875 40.692 39.845l0.981 13.152a70.728 70.728 0 0 0 70.4 65.6 8 8 0 0 0 7.933-6.971l18.58-143.18 19.383-19.36a8 8 0 0 0 0-11.317l-14.148-14.136 72.2-22.859 0.129-0.042A41.584 41.584 0 0 0 496 206.63a33.71 33.71 0 0 0-33.65-33.78c-6.259 0-12.3-2.844-17.006-8.008a28.194 28.194 0 0 1-7.4-18.722v-3.29A38.8 38.8 0 0 0 399.257 104h-77.15a8 8 0 0 0-7.053 4.225L269.916 192.55H188.877a102.733 102.733 0 0 0-82.945 41.638 297.806 297.806 0 0 1-27.185 31.879l-56.789 57.07A20.608 20.608 0 0 0 21.968 352.1Zm358.406-51.159l-35.938-35.9a53.8 53.8 0 0 0 13.317-10.928L392.5 288.829ZM284.433 199.5a7.942 7.942 0 0 0 0.5-1.091L326.9 120h72.358a22.782 22.782 0 0 1 22.681 22.83v3.29c0 23.162 18.5 42.73 40.41 42.73a17.477 17.477 0 0 1 12.464 5.189A17.749 17.749 0 0 1 480 206.63a25.6 25.6 0 0 1-17.365 24.315l-19.24 6.091a8.033 8.033 0 0 0-1.509-0.807c-8.634-3.48-23.815-11.4-28.472-25.375a8 8 0 0 0-15.179 5.059c4.331 12.992 14.142 22 23.562 27.961l-39.224 12.418-15.778-15.764 12.914-22.717A8 8 0 1 0 365.8 209.9L350.32 237.132A37.94 37.94 0 0 1 284.433 199.5ZM33.309 334.412l56.782-57.061a313.523 313.523 0 0 0 28.653-33.58 86.872 86.872 0 0 1 70.133-35.221H264.4a54 54 0 0 0 53.047 63.78 53.483 53.483 0 0 0 10.586-1.059l45.543 45.5-16.97 130.777a55.066 55.066 0 0 1-47.471-50.343l-0.981-13.15a60.146 60.146 0 0 0-17.835-38.323A55.187 55.187 0 0 0 251.507 329.4H235.1a55.18 55.18 0 0 0-38.806 16.332 60.185 60.185 0 0 0-17.842 38.323l-4.741 63.466a56.553 56.553 0 0 1-48.805-50.4 8.037 8.037 0 0 0-0.213-1.173l-20.72-79.912c-1.9-7.338-2.752-11.243-2.875-17.84a8 8 0 0 0-13.67-5.492L39.568 340.815a4.384 4.384 0 0 1-6.256 0A4.563 4.563 0 0 1 33.309 334.412Z" fill="currentColor" data-fill-palette-color="accent"></path><path d="M176 112a64 64 0 1 0-64 64A64.072 64.072 0 0 0 176 112ZM64 112a48 48 0 1 1 48 48A48.054 48.054 0 0 1 64 112Z" fill="currentColor" data-fill-palette-color="accent"></path><path d="M141.979 98.686a8 8 0 0 0-11.294-0.665L100 125.3l-6.685-5.942a8 8 0 1 0-10.63 11.958l12 10.667a8 8 0 0 0 10.63 0l36-32A8 8 0 0 0 141.979 98.686Z" fill="currentColor" data-fill-palette-color="accent"></path><circle cx="392" cy="168" r="8.0" fill="currentColor" data-fill-palette-color="accent"></circle></svg><g></g></g></svg></g><g><rect width="148.53244812809683" height="4.663298156775943" y="65.80048873650726" x="246.98755187190318" fill="currentColor" data-fill-palette-color="accent"></rect><rect width="148.53244812809683" height="4.663298156775943" y="65.80048873650726" x="0" fill="currentColor" data-fill-palette-color="accent"></rect><rect width="148.53244812809683" height="4.663298156775943" y="56.47389242295537" x="246.98755187190318" fill="currentColor" data-fill-palette-color="accent"></rect><rect width="148.53244812809683" height="4.663298156775943" y="56.47389242295537" x="0" fill="currentColor" data-fill-palette-color="accent"></rect></g></svg></g></svg><rect width="395.52" height="135.3817838888707" fill="transparent" stroke="transparent"></rect></g></svg></g></svg>